<svg xmlns="http://www.w3.org/2000/svg" viewBox="0 0 32 32">
  <defs>
    <linearGradient id="gradient" x1="0%" y1="0%" x2="100%" y2="100%">
      <stop offset="0%" style="stop-color:#3B82F6;stop-opacity:1" />
      <stop offset="100%" style="stop-color:#06B6D4;stop-opacity:1" />
    </linearGradient>
  </defs>
  
  <!-- Background Circle -->
  <circle cx="16" cy="16" r="15" fill="url(#gradient)"/>
  
  <!-- Dollar Sign with Chart Bars -->
  <g fill="white">
    <!-- Dollar Sign -->
    <path d="M17.5 8v1.5c1.5 0.3 2.5 1.3 2.5 2.8 0 0.4-0.3 0.7-0.7 0.7s-0.7-0.3-0.7-0.7c0-0.8-0.7-1.5-1.5-1.5h-2c-0.8 0-1.5 0.7-1.5 1.5s0.7 1.5 1.5 1.5h2c1.7 0 3 1.3 3 3s-1.3 3-3 3v1.5c0 0.4-0.3 0.7-0.7 0.7s-0.7-0.3-0.7-0.7v-1.5c-1.5-0.3-2.5-1.3-2.5-2.8 0-0.4 0.3-0.7 0.7-0.7s0.7 0.3 0.7 0.7c0 0.8 0.7 1.5 1.5 1.5h2c0.8 0 1.5-0.7 1.5-1.5s-0.7-1.5-1.5-1.5h-2c-1.7 0-3-1.3-3-3s1.3-3 3-3V8c0-0.4 0.3-0.7 0.7-0.7S17.5 7.6 17.5 8z"/>
    
    <!-- Chart Bars -->
    <rect x="7" y="20" width="2" height="4" rx="0.5"/>
    <rect x="10" y="18" width="2" height="6" rx="0.5"/>
    <rect x="13" y="19" width="2" height="5" rx="0.5"/>
    <rect x="22" y="17" width="2" height="7" rx="0.5"/>
  </g>
</svg>